<svg width="48" height="48" viewBox="0 0 24 24" fill="none" xmlns="http://www.w3.org/2000/svg">
  <path fill="#4A4A4A" d="M19.43 12.98c.04-.32.07-.65.07-.98s-.03-.66-.07-.98l2.11-1.65a.5.5 0 0 0 .12-.65l-2-3.46a.5.5 0 0 0-.61-.22l-2.49 1a7.03 7.03 0 0 0-1.7-.98l-.38-2.65A.5.5 0 0 0 14 2h-4a.5.5 0 0 0-.5.42l-.38 2.65c-.63.25-1.21.57-1.7.98l-2.49-1a.5.5 0 0 0-.61.22l-2 3.46a.5.5 0 0 0 .12.65L4.57 11c-.04.32-.07.65-.07.98s.03.66.07.98l-2.11 1.65a.5.5 0 0 0-.12.65l2 3.46a.5.5 0 0 0 .61.22l2.49-1c.49.41 1.07.74 1.7.98l.38 2.65c.04.26.25.42.5.42h4c.25 0 .46-.16.5-.42l.38-2.65c.63-.25 1.21-.57 1.7-.98l2.49 1a.5.5 0 0 0 .61-.22l2-3.46a.5.5 0 0 0-.12-.65l-2.11-1.65zM12 15.5a3.5 3.5 0 1 1 0-7 3.5 3.5 0 0 1 0 7z"></path>
</svg>
